<svg id="OBJECTS" xmlns="http://www.w3.org/2000/svg" viewBox="0 0 1030.79 511.06"><defs><style>.cls-1{fill:#ffd207;}.cls-2{font-size:174.9px;fill:#555b6b;font-family:FredokaOne-Regular, Fredoka One;}</style></defs><path class="cls-1" d="M582.1,375.55q-33.35-31.12-76.72-31.13t-77.13,31.33q-33.74,31.33-33.74,79.53,0,32.14,17.07,57.65t42,38.56c16.6,8.71,33.74,52.17,51.42,52.17s34.74-43.19,51.21-51.37,30.46-20.88,42-38.16,17.27-37,17.27-59.25Q615.44,406.69,582.1,375.55Zm-9.9,105.72a95.94,95.94,0,0,1-135.76,0,24.89,24.89,0,1,1,35.2-35.19,46.18,46.18,0,0,0,65.36,0,24.89,24.89,0,1,1,35.2,35.19Z" transform="translate(-263.95 -247.43)"/><path class="cls-1" d="M264,283.27a118,118,0,0,1,.61-14.06A37.7,37.7,0,0,1,268,258.42q5.7-11,31.77-11,24.82,0,30.95,11a32.67,32.67,0,0,1,3.87,11,125.64,125.64,0,0,1,.61,14.25V472.24q0,14.65,2.44,18.53t10.79,3.87a64.91,64.91,0,0,1,11.2.61,20.68,20.68,0,0,1,6.93,3.46q8.15,5.3,8.14,28.92,0,25.65-8.14,31.36-10.6,7.32-50.5,2.44-31.36-4.06-40.73-20.77-11.42-19.95-11.4-63.53Z" transform="translate(-263.95 -247.43)"/><path class="cls-1" d="M767.73,455.54l54.17,44.8q10.17,8.55,12.83,13a16.93,16.93,0,0,1,2.64,8.56q0,9.77-12.62,26.47-13.85,17.1-24.44,17.1-9,0-24.84-11.81l-4.07-2.85q-9.37-7.73-28.92-27.08t-29.73-27.49v31.36a117.66,117.66,0,0,1-.61,14,32.73,32.73,0,0,1-3.87,10.79q-5.29,10.59-31.36,10.59-25.65,0-31.36-11a37.73,37.73,0,0,1-3.46-10.79,117.66,117.66,0,0,1-.61-14v-244a118,118,0,0,1,.61-14.06,38,38,0,0,1,3.46-10.79q5.7-11,31.77-11,19.54,0,27.69,6.92,6.93,5.72,7.33,17.92c.27,2.44.41,6.25.41,11.4V412.78q7.34-6.12,22.2-20.77t22.19-20.77L762,368q14.25-11,24.44-11t23.41,16.5q13.23,16.49,13.24,25.86t-15.07,22Z" transform="translate(-263.95 -247.43)"/><path class="cls-1" d="M986.84,371.24q2.45-22.82,32.18-22.81,15.88,0,23.62,2.44t10.79,8.56a34.92,34.92,0,0,1,3.67,10.79,120,120,0,0,1,.61,14V526.81a119.74,119.74,0,0,1-.61,14.05,37.93,37.93,0,0,1-3.47,10.8q-5.7,10.59-27.89,10.59T996,556.75q-7.54-5.5-8.76-16.09-15.07,21.58-50.3,21.59t-65.36-32.18q-30.15-32.16-30.14-74.73t30.34-74.53q30.33-32,66.59-32a63.66,63.66,0,0,1,25.25,4.88q11.4,4.89,15.88,9.17A56.58,56.58,0,0,1,986.84,371.24ZM912.72,456q0,13.44,10.59,24.23A34.59,34.59,0,0,0,949,491a32.38,32.38,0,0,0,25-11q10-11,10-24.24t-9.57-24.64q-9.57-11.39-25.66-11.4T922.7,431.1Q912.71,442.52,912.72,456Z" transform="translate(-263.95 -247.43)"/><path class="cls-1" d="M1090.29,283.27a118,118,0,0,1,.61-14.06,37.7,37.7,0,0,1,3.46-10.79q5.7-11,31.77-11,24.82,0,30.95,11a32.67,32.67,0,0,1,3.87,11,123.31,123.31,0,0,1,.61,14.25V472.24q0,14.65,2.44,18.53t10.8,3.87a64.85,64.85,0,0,1,11.19.61,20.68,20.68,0,0,1,6.93,3.46q8.14,5.3,8.14,28.92,0,25.65-8.14,31.36-10.61,7.32-50.5,2.44-31.37-4.06-40.73-20.77-11.4-19.95-11.4-63.53Z" transform="translate(-263.95 -247.43)"/><path class="cls-1" d="M1290.46,308.72q-3.06,5.91-10.8,8.35t-20.56,2.44q-12.82,0-20.57-2.44t-10.79-8.55a35,35,0,0,1-3.67-10.8,119.74,119.74,0,0,1-.61-14.05,120.09,120.09,0,0,1,.61-14.05,33.33,33.33,0,0,1,3.46-10.38q5.7-11,31.77-11,25.67,0,31,11a32.5,32.5,0,0,1,3.87,10.79,117.89,117.89,0,0,1,.61,14.05,117.66,117.66,0,0,1-.61,14.05A32.71,32.71,0,0,1,1290.46,308.72Zm-67,75.55a120,120,0,0,1,.61-14,37.82,37.82,0,0,1,3.46-10.79q5.7-10.59,31.77-10.59,19.54,0,27.7,6.92,6.91,5.72,7.33,17.51.39,4.08.4,11.81V527.63a117.66,117.66,0,0,1-.61,14,32.5,32.5,0,0,1-3.87,10.79q-5.3,10.59-31.36,10.59-25.65,0-31.36-11a38,38,0,0,1-3.46-10.59,119,119,0,0,1-.61-14.25Z" transform="translate(-263.95 -247.43)"/><text class="cls-2" transform="translate(646 469.78)">beta</text></svg>